<svg id="visual" viewBox="0 0 960 540" width="960" height="540" xmlns="http://www.w3.org/2000/svg" xmlns:xlink="http://www.w3.org/1999/xlink" version="1.1"><rect x="0" y="0" width="960" height="540" fill="#C48AF9"></rect><defs><linearGradient id="grad1_0" x1="43.8%" y1="0%" x2="100%" y2="100%"><stop offset="14.444444444444446%" stop-color="#ffffff" stop-opacity="1"></stop><stop offset="85.55555555555554%" stop-color="#ffffff" stop-opacity="1"></stop></linearGradient></defs><defs><linearGradient id="grad1_1" x1="43.8%" y1="0%" x2="100%" y2="100%"><stop offset="14.444444444444446%" stop-color="#ffffff" stop-opacity="1"></stop><stop offset="85.55555555555554%" stop-color="#c48af9" stop-opacity="1"></stop></linearGradient></defs><defs><linearGradient id="grad2_0" x1="0%" y1="0%" x2="56.3%" y2="100%"><stop offset="14.444444444444446%" stop-color="#ffffff" stop-opacity="1"></stop><stop offset="85.55555555555554%" stop-color="#ffffff" stop-opacity="1"></stop></linearGradient></defs><defs><linearGradient id="grad2_1" x1="0%" y1="0%" x2="56.3%" y2="100%"><stop offset="14.444444444444446%" stop-color="#c48af9" stop-opacity="1"></stop><stop offset="85.55555555555554%" stop-color="#ffffff" stop-opacity="1"></stop></linearGradient></defs><g transform="translate(960, 0)"><path d="M0 473C-59.4 460.8 -118.7 448.5 -177.9 429.6C-237.2 410.7 -296.3 385.1 -343.7 343.7C-391 302.2 -426.6 244.8 -446.2 184.8C-465.8 124.9 -469.4 62.5 -473 0L0 0Z" fill="#e4c4fd"></path><path d="M0 236.5C-29.7 230.4 -59.4 224.3 -89 214.8C-118.6 205.3 -148.1 192.6 -171.8 171.8C-195.5 151.1 -213.3 122.4 -223.1 92.4C-232.9 62.5 -234.7 31.2 -236.5 0L0 0Z" fill="#ffffff"></path></g><g transform="translate(0, 540)"><path d="M0 -467C61.9 -463.7 123.8 -460.4 182.9 -441.6C242 -422.8 298.2 -388.6 343.7 -343.7C389.1 -298.7 423.6 -243.1 444.4 -184.1C465.1 -125 472.1 -62.5 479 0L0 0Z" fill="#e4c4fd"></path><path d="M0 -233.5C31 -231.8 61.9 -230.2 91.5 -220.8C121 -211.4 149.1 -194.3 171.8 -171.8C194.5 -149.4 211.8 -121.6 222.2 -92C232.6 -62.5 236 -31.3 239.5 0L0 0Z" fill="#ffffff"></path></g></svg>